<svg xmlns="http://www.w3.org/2000/svg" viewBox="0 0 128 128"><defs><filter id="a"><feFlood flood-color="#f9bf2b"/><feComposite in2="SourceGraphic" operator="in"/><feOffset dx="1.5" dy="2"/><feComposite in="SourceGraphic"/></filter></defs><circle fill="#fcd735" cx="64" cy="64" r="64"/><path fill="#4a3493" filter="url(#a)" d="M64.5 27.5a37 37 0 0 0-37 37 37 37 0 0 0 37 37 37 37 0 0 0 37-37 37 37 0 0 0-.506-6.02A21.5 21.5 0 0 1 80.5 73.5 21.5 21.5 0 0 1 59 52a21.5 21.5 0 0 1 20.172-21.453A37 37 0 0 0 64.5 27.5z"/></svg>