<svg id="Layer_1" data-name="Layer 1" xmlns="http://www.w3.org/2000/svg" viewBox="0 0 116.29 116.29"><defs><style>.cls-1{fill:#ffdc61;stroke:#371c4e;stroke-width:5px;}.cls-2{fill:#3f294d;fill-opacity:0.15;}.cls-3{fill:#371c4e;}</style></defs><title>augury_logo</title><g id="Page-1"><g id="_72---hdpi" data-name="72---hdpi"><g id="Iris"><g id="Group"><g id="Group-9"><path id="Oval-2" class="cls-1" d="M59,114.64A55.64,55.64,0,1,0,3.36,59,55.64,55.64,0,0,0,59,114.64h0Z" transform="translate(-0.86 -0.86)"/><path id="Combined-Shape" class="cls-2" d="M92.29,57.79a32.35,32.35,0,1,1-32-27.91,32.27,32.27,0,0,1,11.69,2.18A19,19,0,1,0,92.29,57.79h0Z" transform="translate(-0.86 -0.86)"/><path id="Combined-Shape-2" data-name="Combined-Shape" class="cls-3" d="M91,54.56A32.35,32.35,0,1,1,59,26.65a32.27,32.27,0,0,1,11.69,2.18A19,19,0,1,0,91,54.56h0Z" transform="translate(-0.86 -0.86)"/></g></g></g></g></g></svg>