<svg id="Layer_1" data-name="Layer 1" xmlns="http://www.w3.org/2000/svg" xmlns:xlink="http://www.w3.org/1999/xlink" viewBox="0 0 127.18 127.18"><defs><style>.cls-1{fill:#fff;}.cls-2{mask:url(#mask);}</style><mask id="mask" x="0" y="0" width="127.18" height="127.18" maskUnits="userSpaceOnUse"><g transform="translate(-0.41 -0.41)"><g id="mask-2"><path id="path-1" class="cls-1" d="M64,127.59A63.59,63.59,0,1,0,.41,64,63.59,63.59,0,0,0,64,127.59h0Z"/></g></g></mask></defs><title>augury-logo</title><g id="Page-1"><g id="augury-icon-BW"><g id="augury-icon"><g id="Iris"><g id="Group"><g class="cls-2"><g id="Group-9"><g id="Oval-2"><path id="path-1-2" data-name="path-1" d="M64,127.59A63.59,63.59,0,1,0,.41,64,63.59,63.59,0,0,0,64,127.59h0Z" transform="translate(-0.41 -0.41)"/></g></g></g></g></g></g></g></g><g id="Group-2"><g id="Group-2-2" data-name="Group-2"><path id="Combined-Shape" class="cls-1" d="M100.1,59A36.44,36.44,0,1,1,64,27.55,36.33,36.33,0,0,1,77.16,30,21.41,21.41,0,1,0,100.1,59h0Z" transform="translate(-0.41 -0.41)"/></g></g></svg>