<?xml version="1.0" encoding="UTF-8" standalone="no"?>
<svg width="412px" height="340px" viewBox="0 0 412 340" version="1.1" xmlns="http://www.w3.org/2000/svg" xmlns:xlink="http://www.w3.org/1999/xlink" xmlns:sketch="http://www.bohemiancoding.com/sketch/ns">
    <!-- Generator: Sketch 3.3.3 (12072) - http://www.bohemiancoding.com/sketch -->
    <title>bug-track-icon</title>
    <desc>Created with Sketch.</desc>
    <defs></defs>
    <g id="Page-1" stroke="none" stroke-width="1" fill="none" fill-rule="evenodd" sketch:type="MSPage">
        <path d="M304.304,118.139 C244.823,118.139 196.605,166.357 196.605,225.835 C196.605,285.315 244.823,333.533 304.304,333.533 C363.783,333.533 412,285.315 412,225.835 C412,166.356 363.782,118.139 304.304,118.139 L304.304,118.139 Z M319.315,302.037 L319.315,254.866 L289.289,254.866 L289.289,302.037 C258.265,295.934 233.822,271.305 227.983,240.187 L275.611,240.187 L275.611,210.161 L228.221,210.161 C234.495,179.667 258.701,155.651 289.288,149.635 L289.288,196.483 L319.314,196.483 L319.314,149.634 C349.901,155.651 374.107,179.667 380.381,210.161 L332.992,210.161 L332.992,240.187 L380.62,240.187 C374.782,271.305 350.341,295.936 319.315,302.037 L319.315,302.037 Z M98.216,20.615 C98.216,9.65 107.107,0.761 118.071,0.761 C131.159,0.761 140.655,13.217 137.238,25.814 C135.953,30.557 136.644,35.618 139.154,39.841 C144.719,49.207 154.201,54.974 166.594,55.039 C178.817,54.975 188.423,49.285 194.034,39.841 C196.544,35.617 197.235,30.557 195.95,25.814 C192.538,13.234 202.012,0.761 215.117,0.761 C226.082,0.761 234.972,9.651 234.972,20.615 C234.972,30.136 228.289,38.024 219.461,39.996 C214.992,40.995 211.134,43.792 208.794,47.728 C199.775,62.908 212.867,76.251 223.513,89.802 C190.986,106.817 142.201,106.817 109.673,89.802 C120.485,76.041 133.478,63.021 124.392,47.728 C122.052,43.791 118.195,40.995 113.725,39.996 C104.897,38.024 98.216,30.136 98.216,20.615 L98.216,20.615 Z M209.36,325.479 C197.07,332.4 182.775,337.409 166.594,339.24 C125.072,334.541 95.916,308.969 81.414,283.634 C78.463,278.483 73.171,278.054 68.908,279.983 L33.363,296.063 C26.011,299.389 17.336,296.133 14.004,288.764 C10.674,281.402 13.942,272.735 21.304,269.405 L54.904,254.205 C62.166,250.918 66.894,243.855 65.327,233.59 C63.86,223.937 55.721,218.692 47.773,218.692 L14.63,218.692 C6.55,218.692 -7.10542736e-15,212.142 -7.10542736e-15,204.062 C-7.10542736e-15,195.982 6.55,189.432 14.63,189.432 L47.98,189.432 C55.653,189.432 63.655,184.457 65.131,173.768 C66.263,165.591 61.288,158.517 54.402,155.801 L23.422,143.582 C15.904,140.619 12.215,132.122 15.179,124.604 C18.143,117.088 26.639,113.398 34.156,116.362 L66.012,128.925 C70.107,130.539 75.93,130.005 79.083,122.754 C82.141,115.724 85.593,109.15 89.405,103.171 C117.855,115.983 142.227,122.385 166.595,122.385 C188.304,122.385 210.019,117.288 234.604,107.127 C193.948,131.09 166.605,175.326 166.605,225.837 C166.606,264.992 183.034,300.383 209.36,325.479 L209.36,325.479 Z" id="bug-track-icon" fill="#B3DBFF" sketch:type="MSShapeGroup"></path>
    </g>
</svg>