<?xml version="1.0" encoding="utf-8"?>
<!-- Generator: Adobe Illustrator 19.1.0, SVG Export Plug-In . SVG Version: 6.00 Build 0)  -->
<svg version="1.1" id="Layer_1" xmlns="http://www.w3.org/2000/svg" xmlns:xlink="http://www.w3.org/1999/xlink" x="0px" y="0px"
	 viewBox="-487 361 48 48" style="enable-background:new -487 361 48 48;" xml:space="preserve">
<style type="text/css">
	.st0{fill:#CB5142;}
	.st1{fill:none;}
	.st2{fill:#FFFFFF;}
	.st3{fill:#A8463C;}
	.st4{opacity:0.7;}
	.st5{fill:#A8463B;}
	.st6{opacity:0.9;}
</style>
<polygon class="st0" points="-480,397.5 -463,407 -463,363.7 -483.1,370.8 "/>
<polygon class="st1" points="-480,397.5 -463,407 -463,363.7 -483.1,370.8 "/>
<g>
	<path class="st2" d="M-451.2,378.8h-4.1c-0.7-1.2-1.6-2.2-2.6-3l2.4-2.4l-2.1-2.1l-3.4,3.4c-0.6-0.2-1.3-0.3-2.1-0.3
		c-0.7,0-1.5,0.1-2.1,0.3l-3.2-3.2l-2.1,2.1l2.4,2.4c-1,0.7-1.9,1.8-2.7,3h-4.1v3h3.1c-0.1,0.4-0.1,1-0.1,1.5v1.5h-3v3h3v1.5
		c0,0.4,0,1,0.1,1.5h-3.1v3h4.1c1.5,2.7,4.4,4.4,7.7,4.4c3.2,0,6.2-1.8,7.7-4.4h4.1v-3h-3.1c0.1-0.4,0.1-1,0.1-1.5V388h3v-3h-3v-1.5
		c0-0.4,0-1-0.1-1.5h3.1L-451.2,378.8L-451.2,378.8z"/>
</g>
<polygon class="st3" points="-446,397.5 -463,407 -463,363.7 -442.9,370.8 "/>
<polygon class="st1" points="-446,397.5 -463,407 -463,363.7 -442.9,370.8 "/>
<g class="st4">
	<path class="st2" d="M-463,398.4c3.2,0,6.2-1.8,7.7-4.4h4.1v-3h-3.1c0.1-0.4,0.1-1,0.1-1.5V388h3v-3h-3v-1.5c0-0.4,0-1-0.1-1.5h3.1
		v-3h-4.1c-0.7-1.2-1.6-2.2-2.6-3l2.4-2.4l-2.1-2.1l-3.2,3.2c-0.6-0.2-1.3-0.3-2.1-0.3"/>
</g>
<g>
	<circle class="st5" cx="-457.6" cy="394.5" r="7.7"/>
</g>
<g class="st6">
	<g>
		<path class="st2" d="M-457.6,401.1c-3.6,0-6.6-3-6.6-6.6s3-6.6,6.6-6.6s6.6,3,6.6,6.6S-454,401.1-457.6,401.1z M-457.6,390.5
			c-2.2,0-4,1.8-4,4s1.8,4,4,4c2.2,0,4-1.8,4-4S-455.4,390.5-457.6,390.5z"/>
	</g>
	<g>
		<g>
			<rect x="-458.9" y="389.4" class="st2" width="2.6" height="3.7"/>
		</g>
		<g>
			<rect x="-458.9" y="396" class="st2" width="2.6" height="3.7"/>
		</g>
	</g>
	<g>
		<g>
			<rect x="-456.1" y="393.2" class="st2" width="3.7" height="2.6"/>
		</g>
		<g>
			<rect x="-462.7" y="393.2" class="st2" width="3.7" height="2.6"/>
		</g>
	</g>
</g>
</svg>
