<?xml version="1.0" encoding="utf-8"?>
<!-- Generator: Adobe Illustrator 19.2.1, SVG Export Plug-In . SVG Version: 6.00 Build 0)  -->
<svg version="1.1" id="Layer_1" xmlns="http://www.w3.org/2000/svg" xmlns:xlink="http://www.w3.org/1999/xlink" x="0px" y="0px"
	 viewBox="0 0 48 48" style="enable-background:new 0 0 48 48;" xml:space="preserve">
<style type="text/css">
	.st0{fill:#424242;}
	.st1{fill:none;}
	.st2{fill:#FFFFFF;}
	.st3{opacity:0.7;}
	.st4{opacity:0.9;}
</style>
<polygon class="st0" points="7,36.1 24,45.6 24,2.4 3.9,9.4 "/>
<polygon class="st1" points="7,36.1 24,45.6 24,2.4 3.9,9.4 "/>
<g>
	<path class="st2" d="M35.8,17.4h-4.1c-0.7-1.2-1.6-2.2-2.6-3l2.4-2.4l-2.1-2.1L26,13.3c-0.6-0.2-1.3-0.3-2.1-0.3
		c-0.7,0-1.5,0.1-2.1,0.3l-3.2-3.2l-2.1,2.1l2.4,2.4c-1,0.7-1.9,1.8-2.7,3h-4.1v3h3.1c-0.1,0.4-0.1,1-0.1,1.5v1.5h-3v3h3v1.5
		c0,0.4,0,1,0.1,1.5h-3.1v3h4.1c1.5,2.7,4.4,4.4,7.7,4.4c3.2,0,6.2-1.8,7.7-4.4h4.1v-3h-3.1c0.1-0.4,0.1-1,0.1-1.5v-1.5h3v-3h-3
		v-1.5c0-0.4,0-1-0.1-1.5h3.1L35.8,17.4L35.8,17.4z"/>
</g>
<polygon points="41,36.1 24,45.6 24,2.4 44.1,9.4 "/>
<polygon class="st1" points="41,36.1 24,45.6 24,2.4 44.1,9.4 "/>
<g class="st3">
	<path class="st2" d="M24,37c3.2,0,6.2-1.8,7.7-4.4h4.1v-3h-3.1c0.1-0.4,0.1-1,0.1-1.5v-1.5h3v-3h-3v-1.5c0-0.4,0-1-0.1-1.5h3.1v-3
		h-4.1c-0.7-1.2-1.6-2.2-2.6-3l2.4-2.4l-2.1-2.1l-3.2,3.2C25.6,13.1,24.8,13,24,13"/>
</g>
<g>
	<circle cx="29.4" cy="33.1" r="7.7"/>
</g>
<g class="st4">
	<g>
		<path class="st2" d="M29.4,39.8c-3.6,0-6.6-3-6.6-6.6s3-6.6,6.6-6.6s6.6,3,6.6,6.6S33,39.8,29.4,39.8z M29.4,29.1
			c-2.2,0-4,1.8-4,4s1.8,4,4,4s4-1.8,4-4S31.6,29.1,29.4,29.1z"/>
	</g>
	<g>
		<g>
			<rect x="28.1" y="28" class="st2" width="2.6" height="3.7"/>
		</g>
		<g>
			<rect x="28.1" y="34.6" class="st2" width="2.6" height="3.7"/>
		</g>
	</g>
	<g>
		<g>
			<rect x="30.9" y="31.9" class="st2" width="3.7" height="2.6"/>
		</g>
		<g>
			<rect x="24.3" y="31.9" class="st2" width="3.7" height="2.6"/>
		</g>
	</g>
</g>
</svg>
