<?xml version="1.0" encoding="utf-8"?>
<!-- Generator: Adobe Illustrator 19.2.1, SVG Export Plug-In . SVG Version: 6.00 Build 0)  -->
<svg version="1.1" id="Layer_1" xmlns="http://www.w3.org/2000/svg" xmlns:xlink="http://www.w3.org/1999/xlink" x="0px" y="0px"
	 viewBox="0 0 100 97" style="enable-background:new 0 0 100 97;" xml:space="preserve">
<g>
	<path d="M84.7,13.8c-1.8-1.8-4.6-1.8-6.4,0L50,42.1L21.7,13.8c-1.8-1.8-4.6-1.8-6.4,0s-1.8,4.6,0,6.4l28.3,28.3L15.3,76.8
		c-1.8,1.8-1.8,4.6,0,6.4c0.9,0.9,2,1.3,3.2,1.3s2.3-0.4,3.2-1.3L50,54.9l28.3,28.3c0.9,0.9,2,1.3,3.2,1.3s2.3-0.4,3.2-1.3
		c1.8-1.8,1.8-4.6,0-6.4L56.4,48.5l28.3-28.3C86.4,18.4,86.4,15.6,84.7,13.8z"/>
</g>
</svg>
