<?xml version="1.0" encoding="utf-8"?>
<!-- Generator: Adobe Illustrator 19.2.1, SVG Export Plug-In . SVG Version: 6.00 Build 0)  -->
<svg version="1.1" id="Layer_1" xmlns="http://www.w3.org/2000/svg" xmlns:xlink="http://www.w3.org/1999/xlink" x="0px" y="0px"
	 viewBox="0 0 48 48" style="enable-background:new 0 0 48 48;" xml:space="preserve">
<path d="M1.9,24c0-0.7,0.3-1.3,0.9-1.7l11.1-7.2c0.1-0.1,0.4-0.2,0.6-0.2c0.5,0,0.9,0.2,1.4,0.6c0.4,0.4,0.7,0.9,0.7,1.5
	c0,0.5-0.2,0.9-0.6,1.2L7,24l8.9,5.8c0.4,0.2,0.6,0.6,0.6,1.2c0,0.6-0.2,1-0.7,1.5c-0.4,0.4-0.9,0.6-1.4,0.6c-0.3,0-0.5-0.1-0.6-0.2
	L2.8,25.7C2.2,25.3,1.9,24.7,1.9,24z M18.9,36.7c0-0.2,0-0.4,0-0.6L26.6,11c0.1-0.5,0.5-0.9,1.1-1c0.4-0.1,0.9,0,1.3,0.3
	c0.4,0.2,0.7,0.6,0.7,1c0,0.2,0,0.5-0.1,0.7L22,37c-0.2,0.6-0.6,0.9-1.2,1c-0.5,0.1-0.9,0-1.2-0.3C19.1,37.5,18.9,37.1,18.9,36.7z
	 M32.2,32.5c-0.4-0.4-0.7-0.9-0.7-1.5s0.2-1,0.6-1.2L41,24l-8.9-5.8c-0.4-0.3-0.6-0.7-0.6-1.2c0-0.6,0.2-1.1,0.7-1.5
	s0.9-0.6,1.4-0.6c0.3,0,0.4,0.1,0.6,0.2l11.1,7.2c0.6,0.4,0.9,1,0.9,1.7c0,0.7-0.3,1.3-0.9,1.7l-11.1,7.2c-0.1,0.1-0.3,0.2-0.6,0.2
	C33,33.1,32.6,32.9,32.2,32.5z"/>
</svg>
