<?xml version="1.0" encoding="UTF-8" standalone="no"?>
<svg width="240px" height="196px" viewBox="0 0 240 196" version="1.1" xmlns="http://www.w3.org/2000/svg" xmlns:xlink="http://www.w3.org/1999/xlink">
    <!-- Generator: Sketch 3.8.3 (29802) - http://www.bohemiancoding.com/sketch -->
    <title>Desktop HD</title>
    <desc>Created with Sketch.</desc>
    <defs>
        <path d="M156.777925,110.062526 L179.997019,110.062526 C184.412324,110.062526 188,106.478977 188,102.058444 L188,8.0040819 C188,3.583836 184.416944,0 179.997019,0 L8.0029805,0 C3.5876756,0 0,3.5835496 0,8.0040819 L0,102.058444 C0,106.47869 3.5830564,110.062526 8.0029805,110.062526 L93.499227,110.062526 L149.882875,150.703969 C153.019355,152.964749 155.642744,151.661049 155.74821,147.796275 L156.777925,110.062526 L156.777925,110.062526 Z" id="path-1"></path>
    </defs>
    <g id="Page-1" stroke="none" stroke-width="1" fill="none" fill-rule="evenodd">
        <g id="Desktop-HD">
            <g id="Feedback" transform="translate(26.000000, 25.000000)">
                <mask id="mask-2" fill="white">
                    <use xlink:href="#path-1"></use>
                </mask>
                <g id="path-1"></g>
                <path d="M156.777925,110.062526 L179.997019,110.062526 C184.412324,110.062526 188,106.478977 188,102.058444 L188,8.0040819 C188,3.583836 184.416944,0 179.997019,0 L8.0029805,0 C3.5876756,0 0,3.5835496 0,8.0040819 L0,102.058444 C0,106.47869 3.5830564,110.062526 8.0029805,110.062526 L93.499227,110.062526 L149.882875,150.703969 C153.019355,152.964749 155.642744,151.661049 155.74821,147.796275 L156.777925,110.062526 L156.777925,110.062526 Z" id="path-1" stroke="#000000" stroke-width="28" mask="url(#mask-2)"></path>
            </g>
        </g>
    </g>
</svg>